<svg version="1.1" xmlns="http://www.w3.org/2000/svg" viewBox="0 0 285.1719321239094 648.8705094989886" width="570.3438642478188" height="1297.741018997977">
  <!-- svg-source:excalidraw -->
  
  <defs>
    <style class="style-fonts">
      @font-face {
        font-family: "Virgil";
        src: url("https://excalidraw.com/Virgil.woff2");
      }
      @font-face {
        font-family: "Cascadia";
        src: url("https://excalidraw.com/Cascadia.woff2");
      }
      @font-face {
        font-family: "Assistant";
        src: url("https://excalidraw.com/Assistant-Regular.woff2");
      }
    </style>
    
  </defs>
  <rect x="0" y="0" width="285.1719321239094" height="648.8705094989886" fill="#ffffff"></rect><g stroke-linecap="round" transform="translate(25.880761161005807 353.81636549009494) rotate(0 33.92887186011433 33.65959509931977)"><path d="M16.83 0 C25.96 -3.35, 36.93 -2.04, 51.03 0 C58.87 3.22, 67.89 7.42, 67.86 16.83 C66.61 27.9, 68.55 32.02, 67.86 50.49 C67.04 62.64, 63.72 70.09, 51.03 67.32 C40.42 64.9, 38.67 67.66, 16.83 67.32 C8.97 64.53, 2.53 61.02, 0 50.49 C3.04 44.79, -3.68 37.43, 0 16.83 C2.64 7.43, 2.12 1.18, 16.83 0" stroke="none" stroke-width="0" fill="#a5d8ff"></path><path d="M16.83 0 C26.53 0.29, 36.29 -1.1, 51.03 0 M16.83 0 C23.88 0.29, 31.35 -0.05, 51.03 0 M51.03 0 C61.56 0.67, 66.53 6.86, 67.86 16.83 M51.03 0 C60.19 -0.02, 65.62 7.57, 67.86 16.83 M67.86 16.83 C69.53 28.77, 66.68 40.67, 67.86 50.49 M67.86 16.83 C67.3 25.43, 67.11 34.82, 67.86 50.49 M67.86 50.49 C66.67 60.29, 63.98 68.99, 51.03 67.32 M67.86 50.49 C69.3 63.5, 61.96 65.61, 51.03 67.32 M51.03 67.32 C43.86 69.36, 35.02 68.98, 16.83 67.32 M51.03 67.32 C38.45 66.37, 26.34 67.62, 16.83 67.32 M16.83 67.32 C3.67 66.19, -0.3 63.62, 0 50.49 M16.83 67.32 C4 68.14, -0.8 62.97, 0 50.49 M0 50.49 C1.74 39.63, -1.33 27.02, 0 16.83 M0 50.49 C0.34 38.22, -0.11 26.85, 0 16.83 M0 16.83 C1.12 6.69, 6.15 1.8, 16.83 0 M0 16.83 C0.91 6.68, 6.07 -0.05, 16.83 0" stroke="#1e1e1e" stroke-width="2" fill="none"></path></g><g transform="translate(32.32629943347365 377.26224716836487) rotate(0 27.483333587646484 10.213713421049846)"><text x="27.483333587646484" y="0" font-family="Virgil, Segoe UI Emoji" font-size="16.341941473679775px" fill="#1e1e1e" text-anchor="middle" style="white-space: pre;" direction="ltr" dominant-baseline="text-before-edge">genesis</text></g><g stroke-linecap="round" transform="translate(113.8713830279778 243.5024591836832) rotate(0 25.23083453360573 24.229568333937294)"><path d="M50.46 24.23 C50.46 25.63, 50.33 27.06, 50.08 28.44 C49.82 29.82, 49.44 31.2, 48.94 32.52 C48.44 33.83, 47.81 35.13, 47.08 36.34 C46.35 37.56, 45.5 38.73, 44.56 39.8 C43.62 40.88, 42.57 41.89, 41.45 42.79 C40.33 43.69, 39.11 44.51, 37.85 45.21 C36.58 45.91, 35.23 46.52, 33.86 47 C32.49 47.48, 31.05 47.85, 29.61 48.09 C28.17 48.33, 26.69 48.46, 25.23 48.46 C23.77 48.46, 22.29 48.33, 20.85 48.09 C19.41 47.85, 17.97 47.48, 16.6 47 C15.23 46.52, 13.88 45.91, 12.62 45.21 C11.35 44.51, 10.13 43.69, 9.01 42.79 C7.89 41.89, 6.84 40.88, 5.9 39.8 C4.96 38.73, 4.11 37.56, 3.38 36.34 C2.65 35.13, 2.02 33.83, 1.52 32.52 C1.02 31.2, 0.64 29.82, 0.38 28.44 C0.13 27.06, 0 25.63, 0 24.23 C0 22.83, 0.13 21.4, 0.38 20.02 C0.64 18.64, 1.02 17.26, 1.52 15.94 C2.02 14.62, 2.65 13.33, 3.38 12.11 C4.11 10.9, 4.96 9.73, 5.9 8.66 C6.84 7.58, 7.89 6.57, 9.01 5.67 C10.13 4.77, 11.35 3.95, 12.62 3.25 C13.88 2.54, 15.23 1.94, 16.6 1.46 C17.97 0.98, 19.41 0.61, 20.85 0.37 C22.29 0.12, 23.77 0, 25.23 0 C26.69 0, 28.17 0.12, 29.61 0.37 C31.05 0.61, 32.49 0.98, 33.86 1.46 C35.23 1.94, 36.58 2.54, 37.85 3.25 C39.11 3.95, 40.33 4.77, 41.45 5.67 C42.57 6.57, 43.62 7.58, 44.56 8.66 C45.5 9.73, 46.35 10.9, 47.08 12.11 C47.81 13.33, 48.44 14.62, 48.94 15.94 C49.44 17.26, 49.82 18.64, 50.08 20.02 C50.33 21.4, 50.4 23.53, 50.46 24.23 C50.53 24.93, 50.53 23.53, 50.46 24.23" stroke="none" stroke-width="0" fill="#228be6"></path><path d="M50.46 24.23 C50.46 25.63, 50.33 27.06, 50.08 28.44 C49.82 29.82, 49.44 31.2, 48.94 32.52 C48.44 33.83, 47.81 35.13, 47.08 36.34 C46.35 37.56, 45.5 38.73, 44.56 39.8 C43.62 40.88, 42.57 41.89, 41.45 42.79 C40.33 43.69, 39.11 44.51, 37.85 45.21 C36.58 45.91, 35.23 46.52, 33.86 47 C32.49 47.48, 31.05 47.85, 29.61 48.09 C28.17 48.33, 26.69 48.46, 25.23 48.46 C23.77 48.46, 22.29 48.33, 20.85 48.09 C19.41 47.85, 17.97 47.48, 16.6 47 C15.23 46.52, 13.88 45.91, 12.62 45.21 C11.35 44.51, 10.13 43.69, 9.01 42.79 C7.89 41.89, 6.84 40.88, 5.9 39.8 C4.96 38.73, 4.11 37.56, 3.38 36.34 C2.65 35.13, 2.02 33.83, 1.52 32.52 C1.02 31.2, 0.64 29.82, 0.38 28.44 C0.13 27.06, 0 25.63, 0 24.23 C0 22.83, 0.13 21.4, 0.38 20.02 C0.64 18.64, 1.02 17.26, 1.52 15.94 C2.02 14.62, 2.65 13.33, 3.38 12.11 C4.11 10.9, 4.96 9.73, 5.9 8.66 C6.84 7.58, 7.89 6.57, 9.01 5.67 C10.13 4.77, 11.35 3.95, 12.62 3.25 C13.88 2.54, 15.23 1.94, 16.6 1.46 C17.97 0.98, 19.41 0.61, 20.85 0.37 C22.29 0.12, 23.77 0, 25.23 0 C26.69 0, 28.17 0.12, 29.61 0.37 C31.05 0.61, 32.49 0.98, 33.86 1.46 C35.23 1.94, 36.58 2.54, 37.85 3.25 C39.11 3.95, 40.33 4.77, 41.45 5.67 C42.57 6.57, 43.62 7.58, 44.56 8.66 C45.5 9.73, 46.35 10.9, 47.08 12.11 C47.81 13.33, 48.44 14.62, 48.94 15.94 C49.44 17.26, 49.82 18.64, 50.08 20.02 C50.33 21.4, 50.4 23.53, 50.46 24.23 C50.53 24.93, 50.53 23.53, 50.46 24.23" stroke="#228be6" stroke-width="1" fill="none"></path></g><g stroke-linecap="round"><g transform="translate(138.27700754362183 269.0942272037103) rotate(355.7699076802468 3.6617809731397983 -4.231117074152422)"><path d="M0 0 C1.22 -1.41, 6.1 -7.05, 7.32 -8.46 M0 0 C1.22 -1.41, 6.1 -7.05, 7.32 -8.46" stroke="#ffffff" stroke-width="4" fill="none"></path></g></g><mask></mask><g stroke-linecap="round" transform="translate(143.7561290141324 251.7834142184883) rotate(355.7699076802468 4.628612923734238 4.5017954413330585)"><path d="M9.26 4.5 C9.26 4.76, 9.23 5.03, 9.19 5.28 C9.14 5.54, 9.07 5.8, 8.98 6.04 C8.89 6.29, 8.77 6.53, 8.64 6.75 C8.5 6.98, 8.35 7.2, 8.17 7.4 C8 7.6, 7.81 7.78, 7.6 7.95 C7.4 8.12, 7.17 8.27, 6.94 8.4 C6.71 8.53, 6.46 8.64, 6.21 8.73 C5.96 8.82, 5.7 8.89, 5.43 8.94 C5.17 8.98, 4.9 9, 4.63 9 C4.36 9, 4.09 8.98, 3.82 8.94 C3.56 8.89, 3.3 8.82, 3.05 8.73 C2.79 8.64, 2.55 8.53, 2.31 8.4 C2.08 8.27, 1.86 8.12, 1.65 7.95 C1.45 7.78, 1.26 7.6, 1.08 7.4 C0.91 7.2, 0.75 6.98, 0.62 6.75 C0.49 6.53, 0.37 6.29, 0.28 6.04 C0.19 5.8, 0.12 5.54, 0.07 5.28 C0.02 5.03, 0 4.76, 0 4.5 C0 4.24, 0.02 3.98, 0.07 3.72 C0.12 3.46, 0.19 3.21, 0.28 2.96 C0.37 2.72, 0.49 2.48, 0.62 2.25 C0.75 2.03, 0.91 1.81, 1.08 1.61 C1.26 1.41, 1.45 1.22, 1.65 1.05 C1.86 0.89, 2.08 0.73, 2.31 0.6 C2.55 0.47, 2.79 0.36, 3.05 0.27 C3.3 0.18, 3.56 0.11, 3.82 0.07 C4.09 0.02, 4.36 0, 4.63 0 C4.9 0, 5.17 0.02, 5.43 0.07 C5.7 0.11, 5.96 0.18, 6.21 0.27 C6.46 0.36, 6.71 0.47, 6.94 0.6 C7.17 0.73, 7.4 0.89, 7.6 1.05 C7.81 1.22, 8 1.41, 8.17 1.61 C8.35 1.81, 8.5 2.03, 8.64 2.25 C8.77 2.48, 8.89 2.72, 8.98 2.96 C9.07 3.21, 9.14 3.46, 9.19 3.72 C9.23 3.98, 9.25 4.37, 9.26 4.5 C9.27 4.63, 9.27 4.37, 9.26 4.5" stroke="#ffffff" stroke-width="4" fill="none"></path></g><g stroke-linecap="round" transform="translate(151.50350805491553 265.19636470154205) rotate(46.596761777125984 4.628612923734238 4.50179544133303)"><path d="M9.26 4.5 C9.26 4.76, 9.23 5.03, 9.19 5.28 C9.14 5.54, 9.07 5.8, 8.98 6.04 C8.89 6.29, 8.77 6.53, 8.64 6.75 C8.5 6.98, 8.35 7.2, 8.17 7.4 C8 7.6, 7.81 7.78, 7.6 7.95 C7.4 8.12, 7.17 8.27, 6.94 8.4 C6.71 8.53, 6.46 8.64, 6.21 8.73 C5.96 8.82, 5.7 8.89, 5.43 8.94 C5.17 8.98, 4.9 9, 4.63 9 C4.36 9, 4.09 8.98, 3.82 8.94 C3.56 8.89, 3.3 8.82, 3.05 8.73 C2.79 8.64, 2.55 8.53, 2.31 8.4 C2.08 8.27, 1.86 8.12, 1.65 7.95 C1.45 7.78, 1.26 7.6, 1.08 7.4 C0.91 7.2, 0.75 6.98, 0.62 6.75 C0.49 6.53, 0.37 6.29, 0.28 6.04 C0.19 5.8, 0.12 5.54, 0.07 5.28 C0.02 5.03, 0 4.76, 0 4.5 C0 4.24, 0.02 3.98, 0.07 3.72 C0.12 3.46, 0.19 3.21, 0.28 2.96 C0.37 2.72, 0.49 2.48, 0.62 2.25 C0.75 2.03, 0.91 1.81, 1.08 1.61 C1.26 1.41, 1.45 1.22, 1.65 1.05 C1.86 0.89, 2.08 0.73, 2.31 0.6 C2.55 0.47, 2.79 0.36, 3.05 0.27 C3.3 0.18, 3.56 0.11, 3.82 0.07 C4.09 0.02, 4.36 0, 4.63 0 C4.9 0, 5.17 0.02, 5.43 0.07 C5.7 0.11, 5.96 0.18, 6.21 0.27 C6.46 0.36, 6.71 0.47, 6.94 0.6 C7.17 0.73, 7.4 0.89, 7.6 1.05 C7.81 1.22, 8 1.41, 8.17 1.61 C8.35 1.81, 8.5 2.03, 8.64 2.25 C8.77 2.48, 8.89 2.72, 8.98 2.96 C9.07 3.21, 9.14 3.46, 9.19 3.72 C9.23 3.98, 9.25 4.37, 9.26 4.5 C9.27 4.63, 9.27 4.37, 9.26 4.5" stroke="#ffffff" stroke-width="4" fill="none"></path></g><g stroke-linecap="round"><g transform="translate(137.35135340510078 277.0222273530794) rotate(94.22952291892014 3.8124008055195873 -3.219350451369138)"><path d="M0 0 C1.27 -1.07, 6.35 -5.37, 7.62 -6.44 M0 0 C1.27 -1.07, 6.35 -5.37, 7.62 -6.44" stroke="#ffffff" stroke-width="4" fill="none"></path></g></g><mask></mask><g stroke-linecap="round" transform="translate(142.4050155961553 277.7486664299854) rotate(94.22952291892014 4.628612923734238 4.50179544133303)"><path d="M9.26 4.5 C9.26 4.76, 9.23 5.03, 9.19 5.28 C9.14 5.54, 9.07 5.8, 8.98 6.04 C8.89 6.29, 8.77 6.53, 8.64 6.75 C8.5 6.98, 8.35 7.2, 8.17 7.4 C8 7.6, 7.81 7.78, 7.6 7.95 C7.4 8.12, 7.17 8.27, 6.94 8.4 C6.71 8.53, 6.46 8.64, 6.21 8.73 C5.96 8.82, 5.7 8.89, 5.43 8.94 C5.17 8.98, 4.9 9, 4.63 9 C4.36 9, 4.09 8.98, 3.82 8.94 C3.56 8.89, 3.3 8.82, 3.05 8.73 C2.79 8.64, 2.55 8.53, 2.31 8.4 C2.08 8.27, 1.86 8.12, 1.65 7.95 C1.45 7.78, 1.26 7.6, 1.08 7.4 C0.91 7.2, 0.75 6.98, 0.62 6.75 C0.49 6.53, 0.37 6.29, 0.28 6.04 C0.19 5.8, 0.12 5.54, 0.07 5.28 C0.02 5.03, 0 4.76, 0 4.5 C0 4.24, 0.02 3.98, 0.07 3.72 C0.12 3.46, 0.19 3.21, 0.28 2.96 C0.37 2.72, 0.49 2.48, 0.62 2.25 C0.75 2.03, 0.91 1.81, 1.08 1.61 C1.26 1.41, 1.45 1.22, 1.65 1.05 C1.86 0.89, 2.08 0.73, 2.31 0.6 C2.55 0.47, 2.79 0.36, 3.05 0.27 C3.3 0.18, 3.56 0.11, 3.82 0.07 C4.09 0.02, 4.36 0, 4.63 0 C4.9 0, 5.17 0.02, 5.43 0.07 C5.7 0.11, 5.96 0.18, 6.21 0.27 C6.46 0.36, 6.71 0.47, 6.94 0.6 C7.17 0.73, 7.4 0.89, 7.6 1.05 C7.81 1.22, 8 1.41, 8.17 1.61 C8.35 1.81, 8.5 2.03, 8.64 2.25 C8.77 2.48, 8.89 2.72, 8.98 2.96 C9.07 3.21, 9.14 3.46, 9.19 3.72 C9.23 3.98, 9.25 4.37, 9.26 4.5 C9.27 4.63, 9.27 4.37, 9.26 4.5" stroke="#ffffff" stroke-width="4" fill="none"></path></g><g stroke-linecap="round"><g transform="translate(134.72757314393743 276.4649560607508) rotate(227.21317619480618 6.710579415210418 -6.927806003719752)"><path d="M0 0 C2.24 -2.31, 11.18 -11.55, 13.42 -13.86 M0 0 C2.24 -2.31, 11.18 -11.55, 13.42 -13.86" stroke="#ffffff" stroke-width="4" fill="none"></path></g></g><mask></mask><g stroke-linecap="round" transform="translate(117.63331238323667 262.9217150940524) rotate(227.21317619480618 6.876021837491749 6.687628512594131)"><path d="M13.75 6.69 C13.75 7.07, 13.72 7.47, 13.65 7.85 C13.58 8.23, 13.47 8.61, 13.34 8.97 C13.2 9.34, 13.03 9.7, 12.83 10.03 C12.63 10.37, 12.4 10.69, 12.14 10.99 C11.89 11.28, 11.6 11.56, 11.3 11.81 C10.99 12.06, 10.66 12.29, 10.31 12.48 C9.97 12.67, 9.6 12.84, 9.23 12.97 C8.85 13.1, 8.46 13.21, 8.07 13.27 C7.68 13.34, 7.27 13.38, 6.88 13.38 C6.48 13.38, 6.07 13.34, 5.68 13.27 C5.29 13.21, 4.9 13.1, 4.52 12.97 C4.15 12.84, 3.78 12.67, 3.44 12.48 C3.09 12.29, 2.76 12.06, 2.46 11.81 C2.15 11.56, 1.86 11.28, 1.61 10.99 C1.35 10.69, 1.12 10.37, 0.92 10.03 C0.72 9.7, 0.55 9.34, 0.41 8.97 C0.28 8.61, 0.17 8.23, 0.1 7.85 C0.04 7.47, 0 7.07, 0 6.69 C0 6.3, 0.04 5.91, 0.1 5.53 C0.17 5.15, 0.28 4.76, 0.41 4.4 C0.55 4.04, 0.72 3.68, 0.92 3.34 C1.12 3.01, 1.35 2.69, 1.61 2.39 C1.86 2.09, 2.15 1.81, 2.46 1.56 C2.76 1.32, 3.09 1.09, 3.44 0.9 C3.78 0.7, 4.15 0.54, 4.52 0.4 C4.9 0.27, 5.29 0.17, 5.68 0.1 C6.07 0.03, 6.48 0, 6.88 0 C7.27 0, 7.68 0.03, 8.07 0.1 C8.46 0.17, 8.85 0.27, 9.23 0.4 C9.6 0.54, 9.97 0.7, 10.31 0.9 C10.66 1.09, 10.99 1.32, 11.3 1.56 C11.6 1.81, 11.89 2.09, 12.14 2.39 C12.4 2.69, 12.63 3.01, 12.83 3.34 C13.03 3.68, 13.2 4.04, 13.34 4.4 C13.47 4.76, 13.58 5.15, 13.65 5.53 C13.72 5.91, 13.73 6.49, 13.75 6.69 C13.77 6.88, 13.77 6.49, 13.75 6.69" stroke="#ffffff" stroke-width="4" fill="none"></path></g><g transform="translate(125.28889356045124 218.83135264772926) rotate(0 12.800000190734863 12.064475870685072)"><text x="12.800000190734863" y="0" font-family="Virgil, Segoe UI Emoji" font-size="19.303161393096115px" fill="#000000" text-anchor="middle" style="white-space: pre;" direction="ltr" dominant-baseline="text-before-edge">LB</text></g><g stroke-linecap="round"><g transform="translate(41.55699908688507 547.0547172072787) rotate(0 33.426377683795295 33.041613624125716)" fill-rule="evenodd"><path d="M0 0 C0 0, 0 0, 0 0 M0 0 C0 0, 0 0, 0 0 M1.71 4.13 C2.49 2.58, 4.26 2.11, 4.99 0.36 M1.71 4.13 C2.62 3.38, 3.23 2.52, 4.99 0.36 M4.07 7.51 C6.93 4.27, 9.13 2.85, 10.63 -0.03 M4.07 7.51 C5.33 5.83, 6.98 4.67, 10.63 -0.03 M5.78 11.65 C9.55 9.42, 10.53 4.54, 15.62 0.33 M5.78 11.65 C9.8 7.45, 12.72 3.13, 15.62 0.33 M7.48 15.78 C9.09 14.06, 14.35 9.9, 21.26 -0.07 M7.48 15.78 C9.87 12.97, 14.02 8.27, 21.26 -0.07 M9.85 19.16 C15.46 12.42, 23.77 2.46, 26.25 0.29 M9.85 19.16 C12.88 14.44, 16.44 12.37, 26.25 0.29 M11.55 23.29 C19.16 14.28, 26.56 6.9, 31.89 -0.1 M11.55 23.29 C19.02 14.49, 27.9 5.8, 31.89 -0.1 M13.92 26.67 C21.93 16.4, 29.1 9.44, 36.88 0.26 M13.92 26.67 C18.61 21.19, 23.42 14.87, 36.88 0.26 M15.62 30.81 C22.84 22.11, 28.33 15.9, 42.52 -0.14 M15.62 30.81 C24.37 20.66, 35.57 7.96, 42.52 -0.14 M17.33 34.94 C25.41 27.96, 32.32 16.64, 47.51 0.22 M17.33 34.94 C24.16 26.51, 30.11 18.31, 47.51 0.22 M19.69 38.32 C29.49 27.31, 35.82 18.61, 53.15 -0.17 M19.69 38.32 C27.2 29.97, 35.53 20.55, 53.15 -0.17 M21.4 42.45 C32.76 31.58, 43.25 20.78, 58.14 0.19 M21.4 42.45 C33.17 29.08, 44.34 15.06, 58.14 0.19 M23.1 46.59 C33.26 31.94, 48.01 19.62, 63.78 -0.21 M23.1 46.59 C35.19 32.22, 47.93 17.33, 63.78 -0.21 M25.47 49.96 C36.02 39.39, 44.33 27.77, 65.49 3.93 M25.47 49.96 C40.15 32.1, 55.51 14.27, 65.49 3.93 M27.17 54.1 C36.1 43, 44.74 32.79, 58.01 18.63 M27.17 54.1 C36.35 42.15, 46.47 29.95, 58.01 18.63 M28.88 58.23 C34.9 51.57, 39.18 45.54, 51.19 32.57 M28.88 58.23 C36.9 49.59, 45.14 40, 51.19 32.57 M31.24 61.61 C32.5 56.28, 36.55 52.68, 43.71 47.27 M31.24 61.61 C34.68 57.38, 39.17 53.6, 43.71 47.27 M32.95 65.74 C33.55 64.92, 34.17 64.06, 36.23 61.97 M32.95 65.74 C34.15 64.11, 35.74 62.62, 36.23 61.97 M33.63 66.49 C33.63 66.49, 33.63 66.49, 33.63 66.49 M33.63 66.49 C33.63 66.49, 33.63 66.49, 33.63 66.49 M35.5 62.82 C33.76 61.07, 31.96 58.79, 28.7 56.91 M35.5 62.82 C32.99 60.91, 30.24 58.37, 28.7 56.91 M37.37 59.14 C30.42 55.11, 28.24 51.5, 23.78 47.33 M37.37 59.14 C32.35 54.7, 28.2 50.66, 23.78 47.33 M39.23 55.47 C32.1 49.57, 23.18 40.13, 18.86 37.75 M39.23 55.47 C31.77 48.83, 24.55 42.32, 18.86 37.75 M41.1 51.79 C35.74 47.7, 29.23 43.31, 14.69 28.83 M41.1 51.79 C35.69 46.63, 28.51 41.09, 14.69 28.83 M42.97 48.12 C32.56 37.97, 23.28 29.18, 9.77 19.25 M42.97 48.12 C31.06 37.26, 18.11 26.91, 9.77 19.25 M44.84 44.44 C36.01 36.21, 25.47 26.77, 4.84 9.67 M44.84 44.44 C32.59 33.66, 20.82 23.98, 4.84 9.67 M46.71 40.77 C29.7 26.8, 14.37 13.24, -0.08 0.09 M46.71 40.77 C33.41 29.9, 23.12 19.27, -0.08 0.09 M48.58 37.09 C37.07 28.72, 27.43 18.94, 2.55 -2.93 M48.58 37.09 C38.81 29.32, 30.94 20.91, 2.55 -2.93 M50.45 33.42 C35.65 18.93, 18.27 3.41, 8.94 -2.67 M50.45 33.42 C39.51 25.02, 31.05 15.67, 8.94 -2.67 M51.57 29.09 C37.31 18.48, 23.77 5.45, 14.59 -3.06 M51.57 29.09 C39.13 18.58, 28.33 9.08, 14.59 -3.06 M53.44 25.41 C42.96 16.26, 28.19 5.63, 20.98 -2.8 M53.44 25.41 C41.64 14.76, 31.32 5.03, 20.98 -2.8 M55.31 21.74 C46.09 16, 40.14 9.14, 26.63 -3.19 M55.31 21.74 C45.76 14.85, 37.68 6.88, 26.63 -3.19 M57.18 18.06 C50.42 13.72, 45.55 5.41, 33.02 -2.93 M57.18 18.06 C49.17 11.02, 42.19 5.57, 33.02 -2.93 M59.04 14.39 C53.77 11.72, 51.81 8.17, 38.67 -3.33 M59.04 14.39 C54.38 10.62, 49.95 6.27, 38.67 -3.33 M60.91 10.71 C55.91 6.79, 53.09 3.03, 45.07 -3.07 M60.91 10.71 C55.2 5.06, 49.31 1.04, 45.07 -3.07 M62.78 7.04 C60.41 4.77, 56.53 0.94, 51.46 -2.8 M62.78 7.04 C58.96 2.57, 54.21 -0.74, 51.46 -2.8 M64.65 3.36 C62.23 0.2, 58.48 -1.92, 57.11 -3.2 M64.65 3.36 C61.98 1.78, 60.22 0.01, 57.11 -3.2 M66.52 -0.31 C65.39 -0.95, 64.96 -1.92, 63.5 -2.94 M66.52 -0.31 C65.6 -0.94, 65 -1.88, 63.5 -2.94" stroke="#000000" stroke-width="0.5" fill="none"></path><path d="M0 0 C8.57 12.84, 14.95 25.1, 33.38 66.28 M0 0 C12.17 23.44, 22.51 46.52, 33.38 66.28 M33.38 66.28 C46.03 38.8, 59.02 15.41, 66.85 -0.19 M33.38 66.28 C45.19 43.31, 56.03 20.98, 66.85 -0.19 M66.85 -0.19 C43.07 0.81, 19.77 2.13, 0 0 M66.85 -0.19 C47.24 0.56, 26.98 -0.74, 0 0 M0 0 C0 0, 0 0, 0 0 M0 0 C0 0, 0 0, 0 0" stroke="#000000" stroke-width="1" fill="none"></path></g></g><mask></mask><g stroke-linecap="round" transform="translate(65.4129007621923 567.4383747521114) rotate(0 2.3310081906570304 2.3310081906570304)"><path d="M-0.18 0.52 L5.29 -0.36 L5.2 4.28 L0.38 5.09" stroke="none" stroke-width="0" fill="#ffffff"></path><path d="M0 0 C1.49 -0.15, 2.91 -0.11, 4.66 0 M0 0 C1.35 -0.01, 2.84 -0.04, 4.66 0 M4.66 0 C4.59 1.77, 4.72 3.33, 4.66 4.66 M4.66 0 C4.64 1.78, 4.7 3.52, 4.66 4.66 M4.66 4.66 C2.81 4.79, 1.13 4.51, 0 4.66 M4.66 4.66 C3.45 4.64, 2.17 4.73, 0 4.66 M0 4.66 C0.13 2.89, -0.09 1.04, 0 0 M0 4.66 C0 3.03, 0 1.49, 0 0" stroke="#000000" stroke-width="2" fill="none"></path></g><g stroke-linecap="round" transform="translate(71.35321195774077 567.4383747521116) rotate(0 2.3310081906570304 2.3310081906570304)"><path d="M0.63 -0.36 L5.2 -0.38 L5.04 5.09 L-0.54 5.26" stroke="none" stroke-width="0" fill="#ffffff"></path><path d="M0 0 C1.32 -0.1, 2.48 0.16, 4.66 0 M0 0 C1.54 -0.04, 2.98 -0.03, 4.66 0 M4.66 0 C4.72 1.09, 4.77 2.24, 4.66 4.66 M4.66 0 C4.69 1.45, 4.72 2.82, 4.66 4.66 M4.66 4.66 C3.17 4.52, 1.63 4.77, 0 4.66 M4.66 4.66 C2.86 4.7, 1.1 4.64, 0 4.66 M0 4.66 C-0.11 3.67, 0.04 2.93, 0 0 M0 4.66 C0.01 3.44, -0.02 2.32, 0 0" stroke="#000000" stroke-width="2" fill="none"></path></g><g stroke-linecap="round" transform="translate(77.44391077848456 567.4383747521114) rotate(0 2.3310081906570304 2.3310081906570304)"><path d="M0.53 -0.38 L5.04 0.43 L4.12 5.26 L0.51 4.23" stroke="none" stroke-width="0" fill="#ffffff"></path><path d="M0 0 C0.94 0.16, 1.91 -0.06, 4.66 0 M0 0 C1.41 -0.02, 2.69 -0.03, 4.66 0 M4.66 0 C4.78 1.74, 4.68 3.34, 4.66 4.66 M4.66 0 C4.73 1.61, 4.68 3.23, 4.66 4.66 M4.66 4.66 C2.83 4.74, 1.23 4.73, 0 4.66 M4.66 4.66 C3.54 4.66, 2.21 4.74, 0 4.66 M0 4.66 C0.07 3.36, -0.06 1.78, 0 0 M0 4.66 C-0.02 3.67, 0.07 2.51, 0 0" stroke="#000000" stroke-width="2" fill="none"></path></g><g stroke-linecap="round" transform="translate(65.48809457480058 561.4980635565657) rotate(0 2.3310081906570304 2.3310081906570304)"><path d="M0.38 0.43 L4.12 0.6 L5.17 4.23 L-0.02 4.74" stroke="none" stroke-width="0" fill="#ffffff"></path><path d="M0 0 C1.07 -0.08, 2.09 0.13, 4.66 0 M0 0 C1.1 -0.03, 2.35 0.04, 4.66 0 M4.66 0 C4.68 1.32, 4.75 2.82, 4.66 4.66 M4.66 0 C4.69 1.53, 4.74 3.15, 4.66 4.66 M4.66 4.66 C3.87 4.76, 2.73 4.7, 0 4.66 M4.66 4.66 C2.89 4.72, 1.29 4.61, 0 4.66 M0 4.66 C-0.07 3.43, -0.12 2.17, 0 0 M0 4.66 C0.08 3.35, 0.07 2.09, 0 0" stroke="#000000" stroke-width="2" fill="none"></path></g><g stroke-linecap="round" transform="translate(71.42840577034201 561.4980635565657) rotate(0 2.3310081906570304 2.3310081906570304)"><path d="M-0.54 0.6 L5.17 -0.43 L4.64 4.74 L-0.34 4.56" stroke="none" stroke-width="0" fill="#ffffff"></path><path d="M0 0 C1.82 0.15, 3.59 0.1, 4.66 0 M0 0 C1.26 0.04, 2.43 0.06, 4.66 0 M4.66 0 C4.74 1.61, 4.72 3.2, 4.66 4.66 M4.66 0 C4.73 1.22, 4.59 2.42, 4.66 4.66 M4.66 4.66 C2.91 4.7, 1.4 4.8, 0 4.66 M4.66 4.66 C3.37 4.63, 2.04 4.7, 0 4.66 M0 4.66 C-0.11 2.84, -0.04 0.92, 0 0 M0 4.66 C0.05 2.85, 0.03 1.18, 0 0" stroke="#000000" stroke-width="2" fill="none"></path></g><g stroke-linecap="round" transform="translate(77.51910459109297 561.4980635565657) rotate(0 2.3310081906570304 2.3310081906570304)"><path d="M0.51 -0.43 L4.64 0.08 L4.32 4.56 L-0.35 4.16" stroke="none" stroke-width="0" fill="#ffffff"></path><path d="M0 0 C1.11 0.08, 2.32 -0.12, 4.66 0 M0 0 C1.19 0.05, 2.41 0, 4.66 0 M4.66 0 C4.73 1.37, 4.61 2.53, 4.66 4.66 M4.66 0 C4.6 1.13, 4.72 2.38, 4.66 4.66 M4.66 4.66 C3.11 4.79, 1.32 4.51, 0 4.66 M4.66 4.66 C2.85 4.68, 1.15 4.62, 0 4.66 M0 4.66 C-0.03 3.13, 0.13 1.82, 0 0 M0 4.66 C0.03 3.57, -0.08 2.44, 0 0" stroke="#000000" stroke-width="2" fill="none"></path></g><g stroke-linecap="round" transform="translate(65.56328838739125 555.6329461736224) rotate(0 2.3310081906570304 2.3310081906570304)"><path d="M-0.02 0.08 L4.32 -0.1 L4.32 4.16 L0.65 5.1" stroke="none" stroke-width="0" fill="#ffffff"></path><path d="M0 0 C1.76 -0.11, 3.58 0.09, 4.66 0 M0 0 C1.62 -0.01, 3.17 0.03, 4.66 0 M4.66 0 C4.61 1.64, 4.59 3.34, 4.66 4.66 M4.66 0 C4.69 1.48, 4.69 2.78, 4.66 4.66 M4.66 4.66 C3.13 4.52, 1.8 4.69, 0 4.66 M4.66 4.66 C3.62 4.63, 2.44 4.61, 0 4.66 M0 4.66 C0.13 3.31, -0.08 1.8, 0 0 M0 4.66 C-0.07 3.6, 0.05 2.35, 0 0" stroke="#000000" stroke-width="2" fill="none"></path></g><g stroke-linecap="round" transform="translate(71.50359958294143 555.6329461736224) rotate(0 2.3310081906570304 2.3310081906570304)"><path d="M-0.34 -0.1 L4.32 -0.5 L5.31 5.1 L-0.43 4.42" stroke="none" stroke-width="0" fill="#ffffff"></path><path d="M0 0 C1.6 0.11, 3.4 0, 4.66 0 M0 0 C1.72 0.04, 3.52 0.03, 4.66 0 M4.66 0 C4.58 1.9, 4.66 3.38, 4.66 4.66 M4.66 0 C4.71 1.22, 4.69 2.56, 4.66 4.66 M4.66 4.66 C3.01 4.67, 0.99 4.6, 0 4.66 M4.66 4.66 C3.1 4.6, 1.53 4.63, 0 4.66 M0 4.66 C-0.1 3.51, -0.1 2.2, 0 0 M0 4.66 C0.07 2.91, 0.01 1.27, 0 0" stroke="#000000" stroke-width="2" fill="none"></path></g><g stroke-linecap="round" transform="translate(77.59429840368989 555.6329461736224) rotate(0 2.3310081906570304 2.3310081906570304)"><path d="M-0.35 -0.5 L5.31 0.44 L4.23 4.42 L-0.17 4.99" stroke="none" stroke-width="0" fill="#ffffff"></path><path d="M0 0 C1.16 -0.02, 2.3 0.04, 4.66 0 M0 0 C1.46 0.02, 2.91 -0.04, 4.66 0 M4.66 0 C4.66 1.34, 4.61 3.08, 4.66 4.66 M4.66 0 C4.69 1.86, 4.74 3.62, 4.66 4.66 M4.66 4.66 C3.63 4.62, 2.84 4.81, 0 4.66 M4.66 4.66 C3.48 4.63, 2.24 4.71, 0 4.66 M0 4.66 C-0.08 2.91, 0.11 0.86, 0 0 M0 4.66 C-0.01 2.85, -0.05 1.02, 0 0" stroke="#000000" stroke-width="2" fill="none"></path></g><g stroke-linecap="round" transform="translate(71.35321195774077 573.5290735728595) rotate(0 2.3310081906570304 2.3310081906570304)"><path d="M0.65 0.44 L4.23 -0.24 L4.5 4.99 L0.34 4.58" stroke="none" stroke-width="0" fill="#ffffff"></path><path d="M0 0 C1.81 0.05, 3.4 -0.05, 4.66 0 M0 0 C1.7 -0.04, 3.29 -0.05, 4.66 0 M4.66 0 C4.61 1.88, 4.8 3.66, 4.66 4.66 M4.66 0 C4.73 1.17, 4.59 2.44, 4.66 4.66 M4.66 4.66 C3.26 4.81, 1.68 4.69, 0 4.66 M4.66 4.66 C3.59 4.72, 2.63 4.62, 0 4.66 M0 4.66 C0.11 2.76, 0.15 1.24, 0 0 M0 4.66 C-0.04 3.56, -0.04 2.41, 0 0" stroke="#000000" stroke-width="2" fill="none"></path></g><g stroke-linecap="round" transform="translate(183.4697416879808 602.2302321281412) rotate(0 23.89758027315719 4.9529372539291785)"><path d="M47.8 4.95 C47.8 5.24, 47.67 5.53, 47.43 5.81 C47.19 6.1, 46.83 6.38, 46.35 6.65 C45.88 6.92, 45.29 7.18, 44.59 7.43 C43.9 7.68, 43.09 7.92, 42.2 8.14 C41.32 8.36, 40.32 8.56, 39.26 8.75 C38.2 8.93, 37.04 9.1, 35.85 9.24 C34.65 9.39, 33.37 9.51, 32.07 9.61 C30.77 9.71, 29.41 9.78, 28.05 9.83 C26.69 9.88, 25.28 9.91, 23.9 9.91 C22.51 9.91, 21.11 9.88, 19.75 9.83 C18.39 9.78, 17.02 9.71, 15.72 9.61 C14.42 9.51, 13.15 9.39, 11.95 9.24 C10.75 9.1, 9.6 8.93, 8.54 8.75 C7.48 8.56, 6.48 8.36, 5.59 8.14 C4.7 7.92, 3.89 7.68, 3.2 7.43 C2.51 7.18, 1.91 6.92, 1.44 6.65 C0.97 6.38, 0.6 6.1, 0.36 5.81 C0.12 5.53, 0 5.24, 0 4.95 C0 4.67, 0.12 4.38, 0.36 4.09 C0.6 3.81, 0.97 3.53, 1.44 3.26 C1.91 2.99, 2.51 2.72, 3.2 2.48 C3.89 2.23, 4.7 1.99, 5.59 1.77 C6.48 1.55, 7.48 1.34, 8.54 1.16 C9.6 0.97, 10.75 0.81, 11.95 0.66 C13.15 0.52, 14.42 0.4, 15.72 0.3 C17.02 0.2, 18.39 0.13, 19.75 0.08 C21.11 0.03, 22.51 0, 23.9 0 C25.28 0, 26.69 0.03, 28.05 0.08 C29.41 0.13, 30.77 0.2, 32.07 0.3 C33.37 0.4, 34.65 0.52, 35.85 0.66 C37.04 0.81, 38.2 0.97, 39.26 1.16 C40.32 1.34, 41.32 1.55, 42.2 1.77 C43.09 1.99, 43.9 2.23, 44.59 2.48 C45.29 2.72, 45.88 2.99, 46.35 3.26 C46.83 3.53, 47.19 3.81, 47.43 4.09 C47.67 4.38, 47.73 4.81, 47.8 4.95 C47.86 5.1, 47.86 4.81, 47.8 4.95" stroke="none" stroke-width="0" fill="#000000"></path><path d="M47.8 4.95 C47.8 5.24, 47.67 5.53, 47.43 5.81 C47.19 6.1, 46.83 6.38, 46.35 6.65 C45.88 6.92, 45.29 7.18, 44.59 7.43 C43.9 7.68, 43.09 7.92, 42.2 8.14 C41.32 8.36, 40.32 8.56, 39.26 8.75 C38.2 8.93, 37.04 9.1, 35.85 9.24 C34.65 9.39, 33.37 9.51, 32.07 9.61 C30.77 9.71, 29.41 9.78, 28.05 9.83 C26.69 9.88, 25.28 9.91, 23.9 9.91 C22.51 9.91, 21.11 9.88, 19.75 9.83 C18.39 9.78, 17.02 9.71, 15.72 9.61 C14.42 9.51, 13.15 9.39, 11.95 9.24 C10.75 9.1, 9.6 8.93, 8.54 8.75 C7.48 8.56, 6.48 8.36, 5.59 8.14 C4.7 7.92, 3.89 7.68, 3.2 7.43 C2.51 7.18, 1.91 6.92, 1.44 6.65 C0.97 6.38, 0.6 6.1, 0.36 5.81 C0.12 5.53, 0 5.24, 0 4.95 C0 4.67, 0.12 4.38, 0.36 4.09 C0.6 3.81, 0.97 3.53, 1.44 3.26 C1.91 2.99, 2.51 2.72, 3.2 2.48 C3.89 2.23, 4.7 1.99, 5.59 1.77 C6.48 1.55, 7.48 1.34, 8.54 1.16 C9.6 0.97, 10.75 0.81, 11.95 0.66 C13.15 0.52, 14.42 0.4, 15.72 0.3 C17.02 0.2, 18.39 0.13, 19.75 0.08 C21.11 0.03, 22.51 0, 23.9 0 C25.28 0, 26.69 0.03, 28.05 0.08 C29.41 0.13, 30.77 0.2, 32.07 0.3 C33.37 0.4, 34.65 0.52, 35.85 0.66 C37.04 0.81, 38.2 0.97, 39.26 1.16 C40.32 1.34, 41.32 1.55, 42.2 1.77 C43.09 1.99, 43.9 2.23, 44.59 2.48 C45.29 2.72, 45.88 2.99, 46.35 3.26 C46.83 3.53, 47.19 3.81, 47.43 4.09 C47.67 4.38, 47.73 4.81, 47.8 4.95 C47.86 5.1, 47.86 4.81, 47.8 4.95" stroke="#000000" stroke-width="4" fill="none"></path></g><g stroke-linecap="round" transform="translate(183.37869200855778 607.1047343900569) rotate(0 24.01611456160947 1.0661861305644038)"><path d="M0.53 0 C14.29 0, 28.04 0, 47.5 0 C47.85 0, 48.03 0.18, 48.03 0.53 C48.03 0.82, 48.03 1.11, 48.03 1.6 C48.03 1.95, 47.85 2.13, 47.5 2.13 C32.96 2.13, 18.41 2.13, 0.53 2.13 C0.18 2.13, 0 1.95, 0 1.6 C0 1.32, 0 1.05, 0 0.53 C0 0.18, 0.18 0, 0.53 0" stroke="none" stroke-width="0" fill="#000000"></path><path d="M0.53 0 C18.38 0, 36.23 0, 47.5 0 M0.53 0 C11.57 0, 22.6 0, 47.5 0 M47.5 0 C47.85 0, 48.03 0.18, 48.03 0.53 M47.5 0 C47.85 0, 48.03 0.18, 48.03 0.53 M48.03 0.53 C48.03 0.92, 48.03 1.3, 48.03 1.6 M48.03 0.53 C48.03 0.89, 48.03 1.24, 48.03 1.6 M48.03 1.6 C48.03 1.95, 47.85 2.13, 47.5 2.13 M48.03 1.6 C48.03 1.95, 47.85 2.13, 47.5 2.13 M47.5 2.13 C31.02 2.13, 14.54 2.13, 0.53 2.13 M47.5 2.13 C37.44 2.13, 27.38 2.13, 0.53 2.13 M0.53 2.13 C0.18 2.13, 0 1.95, 0 1.6 M0.53 2.13 C0.18 2.13, 0 1.95, 0 1.6 M0 1.6 C0 1.29, 0 0.98, 0 0.53 M0 1.6 C0 1.27, 0 0.93, 0 0.53 M0 0.53 C0 0.18, 0.18 0, 0.53 0 M0 0.53 C0 0.18, 0.18 0, 0.53 0" stroke="#000000" stroke-width="4" fill="none"></path></g><g stroke-linecap="round" transform="translate(183.53544413191867 604.9024816929926) rotate(0 23.89758027315719 4.9529372539291785)"><path d="M47.8 4.95 C47.8 5.24, 47.67 5.53, 47.43 5.81 C47.19 6.1, 46.83 6.38, 46.35 6.65 C45.88 6.92, 45.29 7.18, 44.59 7.43 C43.9 7.68, 43.09 7.92, 42.2 8.14 C41.32 8.36, 40.32 8.56, 39.26 8.75 C38.2 8.93, 37.04 9.1, 35.85 9.24 C34.65 9.39, 33.37 9.51, 32.07 9.61 C30.77 9.71, 29.41 9.78, 28.05 9.83 C26.69 9.88, 25.28 9.91, 23.9 9.91 C22.51 9.91, 21.11 9.88, 19.75 9.83 C18.39 9.78, 17.02 9.71, 15.72 9.61 C14.42 9.51, 13.15 9.39, 11.95 9.24 C10.75 9.1, 9.6 8.93, 8.54 8.75 C7.48 8.56, 6.48 8.36, 5.59 8.14 C4.7 7.92, 3.89 7.68, 3.2 7.43 C2.51 7.18, 1.91 6.92, 1.44 6.65 C0.97 6.38, 0.6 6.1, 0.36 5.81 C0.12 5.53, 0 5.24, 0 4.95 C0 4.67, 0.12 4.38, 0.36 4.09 C0.6 3.81, 0.97 3.53, 1.44 3.26 C1.91 2.99, 2.51 2.72, 3.2 2.48 C3.89 2.23, 4.7 1.99, 5.59 1.77 C6.48 1.55, 7.48 1.34, 8.54 1.16 C9.6 0.97, 10.75 0.81, 11.95 0.66 C13.15 0.52, 14.42 0.4, 15.72 0.3 C17.02 0.2, 18.39 0.13, 19.75 0.08 C21.11 0.03, 22.51 0, 23.9 0 C25.28 0, 26.69 0.03, 28.05 0.08 C29.41 0.13, 30.77 0.2, 32.07 0.3 C33.37 0.4, 34.65 0.52, 35.85 0.66 C37.04 0.81, 38.2 0.97, 39.26 1.16 C40.32 1.34, 41.32 1.55, 42.2 1.77 C43.09 1.99, 43.9 2.23, 44.59 2.48 C45.29 2.72, 45.88 2.99, 46.35 3.26 C46.83 3.53, 47.19 3.81, 47.43 4.09 C47.67 4.38, 47.73 4.81, 47.8 4.95 C47.86 5.1, 47.86 4.81, 47.8 4.95" stroke="none" stroke-width="0" fill="#000000"></path><path d="M47.8 4.95 C47.8 5.24, 47.67 5.53, 47.43 5.81 C47.19 6.1, 46.83 6.38, 46.35 6.65 C45.88 6.92, 45.29 7.18, 44.59 7.43 C43.9 7.68, 43.09 7.92, 42.2 8.14 C41.32 8.36, 40.32 8.56, 39.26 8.75 C38.2 8.93, 37.04 9.1, 35.85 9.24 C34.65 9.39, 33.37 9.51, 32.07 9.61 C30.77 9.71, 29.41 9.78, 28.05 9.83 C26.69 9.88, 25.28 9.91, 23.9 9.91 C22.51 9.91, 21.11 9.88, 19.75 9.83 C18.39 9.78, 17.02 9.71, 15.72 9.61 C14.42 9.51, 13.15 9.39, 11.95 9.24 C10.75 9.1, 9.6 8.93, 8.54 8.75 C7.48 8.56, 6.48 8.36, 5.59 8.14 C4.7 7.92, 3.89 7.68, 3.2 7.43 C2.51 7.18, 1.91 6.92, 1.44 6.65 C0.97 6.38, 0.6 6.1, 0.36 5.81 C0.12 5.53, 0 5.24, 0 4.95 C0 4.67, 0.12 4.38, 0.36 4.09 C0.6 3.81, 0.97 3.53, 1.44 3.26 C1.91 2.99, 2.51 2.72, 3.2 2.48 C3.89 2.23, 4.7 1.99, 5.59 1.77 C6.48 1.55, 7.48 1.34, 8.54 1.16 C9.6 0.97, 10.75 0.81, 11.95 0.66 C13.15 0.52, 14.42 0.4, 15.72 0.3 C17.02 0.2, 18.39 0.13, 19.75 0.08 C21.11 0.03, 22.51 0, 23.9 0 C25.28 0, 26.69 0.03, 28.05 0.08 C29.41 0.13, 30.77 0.2, 32.07 0.3 C33.37 0.4, 34.65 0.52, 35.85 0.66 C37.04 0.81, 38.2 0.97, 39.26 1.16 C40.32 1.34, 41.32 1.55, 42.2 1.77 C43.09 1.99, 43.9 2.23, 44.59 2.48 C45.29 2.72, 45.88 2.99, 46.35 3.26 C46.83 3.53, 47.19 3.81, 47.43 4.09 C47.67 4.38, 47.73 4.81, 47.8 4.95 C47.86 5.1, 47.86 4.81, 47.8 4.95" stroke="#000000" stroke-width="4" fill="none"></path></g><g stroke-linecap="round" transform="translate(183.53544413191867 601.2578408863617) rotate(0 23.89758027315719 4.9529372539291785)"><path d="M47.8 4.95 C47.8 5.24, 47.67 5.53, 47.43 5.81 C47.19 6.1, 46.83 6.38, 46.35 6.65 C45.88 6.92, 45.29 7.18, 44.59 7.43 C43.9 7.68, 43.09 7.92, 42.2 8.14 C41.32 8.36, 40.32 8.56, 39.26 8.75 C38.2 8.93, 37.04 9.1, 35.85 9.24 C34.65 9.39, 33.37 9.51, 32.07 9.61 C30.77 9.71, 29.41 9.78, 28.05 9.83 C26.69 9.88, 25.28 9.91, 23.9 9.91 C22.51 9.91, 21.11 9.88, 19.75 9.83 C18.39 9.78, 17.02 9.71, 15.72 9.61 C14.42 9.51, 13.15 9.39, 11.95 9.24 C10.75 9.1, 9.6 8.93, 8.54 8.75 C7.48 8.56, 6.48 8.36, 5.59 8.14 C4.7 7.92, 3.89 7.68, 3.2 7.43 C2.51 7.18, 1.91 6.92, 1.44 6.65 C0.97 6.38, 0.6 6.1, 0.36 5.81 C0.12 5.53, 0 5.24, 0 4.95 C0 4.67, 0.12 4.38, 0.36 4.09 C0.6 3.81, 0.97 3.53, 1.44 3.26 C1.91 2.99, 2.51 2.72, 3.2 2.48 C3.89 2.23, 4.7 1.99, 5.59 1.77 C6.48 1.55, 7.48 1.34, 8.54 1.16 C9.6 0.97, 10.75 0.81, 11.95 0.66 C13.15 0.52, 14.42 0.4, 15.72 0.3 C17.02 0.2, 18.39 0.13, 19.75 0.08 C21.11 0.03, 22.51 0, 23.9 0 C25.28 0, 26.69 0.03, 28.05 0.08 C29.41 0.13, 30.77 0.2, 32.07 0.3 C33.37 0.4, 34.65 0.52, 35.85 0.66 C37.04 0.81, 38.2 0.97, 39.26 1.16 C40.32 1.34, 41.32 1.55, 42.2 1.77 C43.09 1.99, 43.9 2.23, 44.59 2.48 C45.29 2.72, 45.88 2.99, 46.35 3.26 C46.83 3.53, 47.19 3.81, 47.43 4.09 C47.67 4.38, 47.73 4.81, 47.8 4.95 C47.86 5.1, 47.86 4.81, 47.8 4.95" stroke="none" stroke-width="0" fill="#228be6"></path><path d="M47.8 4.95 C47.8 5.24, 47.67 5.53, 47.43 5.81 C47.19 6.1, 46.83 6.38, 46.35 6.65 C45.88 6.92, 45.29 7.18, 44.59 7.43 C43.9 7.68, 43.09 7.92, 42.2 8.14 C41.32 8.36, 40.32 8.56, 39.26 8.75 C38.2 8.93, 37.04 9.1, 35.85 9.24 C34.65 9.39, 33.37 9.51, 32.07 9.61 C30.77 9.71, 29.41 9.78, 28.05 9.83 C26.69 9.88, 25.28 9.91, 23.9 9.91 C22.51 9.91, 21.11 9.88, 19.75 9.83 C18.39 9.78, 17.02 9.71, 15.72 9.61 C14.42 9.51, 13.15 9.39, 11.95 9.24 C10.75 9.1, 9.6 8.93, 8.54 8.75 C7.48 8.56, 6.48 8.36, 5.59 8.14 C4.7 7.92, 3.89 7.68, 3.2 7.43 C2.51 7.18, 1.91 6.92, 1.44 6.65 C0.97 6.38, 0.6 6.1, 0.36 5.81 C0.12 5.53, 0 5.24, 0 4.95 C0 4.67, 0.12 4.38, 0.36 4.09 C0.6 3.81, 0.97 3.53, 1.44 3.26 C1.91 2.99, 2.51 2.72, 3.2 2.48 C3.89 2.23, 4.7 1.99, 5.59 1.77 C6.48 1.55, 7.48 1.34, 8.54 1.16 C9.6 0.97, 10.75 0.81, 11.95 0.66 C13.15 0.52, 14.42 0.4, 15.72 0.3 C17.02 0.2, 18.39 0.13, 19.75 0.08 C21.11 0.03, 22.51 0, 23.9 0 C25.28 0, 26.69 0.03, 28.05 0.08 C29.41 0.13, 30.77 0.2, 32.07 0.3 C33.37 0.4, 34.65 0.52, 35.85 0.66 C37.04 0.81, 38.2 0.97, 39.26 1.16 C40.32 1.34, 41.32 1.55, 42.2 1.77 C43.09 1.99, 43.9 2.23, 44.59 2.48 C45.29 2.72, 45.88 2.99, 46.35 3.26 C46.83 3.53, 47.19 3.81, 47.43 4.09 C47.67 4.38, 47.73 4.81, 47.8 4.95 C47.86 5.1, 47.86 4.81, 47.8 4.95" stroke="#228be6" stroke-width="4" fill="none"></path></g><g stroke-linecap="round" transform="translate(185.3530976449639 575.156431568308) rotate(0 21.93394298947402 14.521054915504806)"><path d="M0 0 L43.87 0 L43.87 29.04 L0 29.04" stroke="none" stroke-width="0" fill="#228be6"></path><path d="M0 0 C16.52 0, 33.04 0, 43.87 0 M0 0 C9.87 0, 19.73 0, 43.87 0 M43.87 0 C43.87 10.18, 43.87 20.35, 43.87 29.04 M43.87 0 C43.87 6.5, 43.87 12.99, 43.87 29.04 M43.87 29.04 C31.19 29.04, 18.5 29.04, 0 29.04 M43.87 29.04 C28.74 29.04, 13.61 29.04, 0 29.04 M0 29.04 C0 21.3, 0 13.57, 0 0 M0 29.04 C0 17.83, 0 6.61, 0 0" stroke="#228be6" stroke-width="4" fill="none"></path></g><g stroke-linecap="round" transform="translate(183.49722629700955 566.9401231748975) rotate(0 23.89758027315719 4.9529372539291785)"><path d="M47.8 4.95 C47.8 5.24, 47.67 5.53, 47.43 5.81 C47.19 6.1, 46.83 6.38, 46.35 6.65 C45.88 6.92, 45.29 7.18, 44.59 7.43 C43.9 7.68, 43.09 7.92, 42.2 8.14 C41.32 8.36, 40.32 8.56, 39.26 8.75 C38.2 8.93, 37.04 9.1, 35.85 9.24 C34.65 9.39, 33.37 9.51, 32.07 9.61 C30.77 9.71, 29.41 9.78, 28.05 9.83 C26.69 9.88, 25.28 9.91, 23.9 9.91 C22.51 9.91, 21.11 9.88, 19.75 9.83 C18.39 9.78, 17.02 9.71, 15.72 9.61 C14.42 9.51, 13.15 9.39, 11.95 9.24 C10.75 9.1, 9.6 8.93, 8.54 8.75 C7.48 8.56, 6.48 8.36, 5.59 8.14 C4.7 7.92, 3.89 7.68, 3.2 7.43 C2.51 7.18, 1.91 6.92, 1.44 6.65 C0.97 6.38, 0.6 6.1, 0.36 5.81 C0.12 5.53, 0 5.24, 0 4.95 C0 4.67, 0.12 4.38, 0.36 4.09 C0.6 3.81, 0.97 3.53, 1.44 3.26 C1.91 2.99, 2.51 2.72, 3.2 2.48 C3.89 2.23, 4.7 1.99, 5.59 1.77 C6.48 1.55, 7.48 1.34, 8.54 1.16 C9.6 0.97, 10.75 0.81, 11.95 0.66 C13.15 0.52, 14.42 0.4, 15.72 0.3 C17.02 0.2, 18.39 0.13, 19.75 0.08 C21.11 0.03, 22.51 0, 23.9 0 C25.28 0, 26.69 0.03, 28.05 0.08 C29.41 0.13, 30.77 0.2, 32.07 0.3 C33.37 0.4, 34.65 0.52, 35.85 0.66 C37.04 0.81, 38.2 0.97, 39.26 1.16 C40.32 1.34, 41.32 1.55, 42.2 1.77 C43.09 1.99, 43.9 2.23, 44.59 2.48 C45.29 2.72, 45.88 2.99, 46.35 3.26 C46.83 3.53, 47.19 3.81, 47.43 4.09 C47.67 4.38, 47.73 4.81, 47.8 4.95 C47.86 5.1, 47.86 4.81, 47.8 4.95" stroke="none" stroke-width="0" fill="#ffffff"></path><path d="M47.8 4.95 C47.8 5.24, 47.67 5.53, 47.43 5.81 C47.19 6.1, 46.83 6.38, 46.35 6.65 C45.88 6.92, 45.29 7.18, 44.59 7.43 C43.9 7.68, 43.09 7.92, 42.2 8.14 C41.32 8.36, 40.32 8.56, 39.26 8.75 C38.2 8.93, 37.04 9.1, 35.85 9.24 C34.65 9.39, 33.37 9.51, 32.07 9.61 C30.77 9.71, 29.41 9.78, 28.05 9.83 C26.69 9.88, 25.28 9.91, 23.9 9.91 C22.51 9.91, 21.11 9.88, 19.75 9.83 C18.39 9.78, 17.02 9.71, 15.72 9.61 C14.42 9.51, 13.15 9.39, 11.95 9.24 C10.75 9.1, 9.6 8.93, 8.54 8.75 C7.48 8.56, 6.48 8.36, 5.59 8.14 C4.7 7.92, 3.89 7.68, 3.2 7.43 C2.51 7.18, 1.91 6.92, 1.44 6.65 C0.97 6.38, 0.6 6.1, 0.36 5.81 C0.12 5.53, 0 5.24, 0 4.95 C0 4.67, 0.12 4.38, 0.36 4.09 C0.6 3.81, 0.97 3.53, 1.44 3.26 C1.91 2.99, 2.51 2.72, 3.2 2.48 C3.89 2.23, 4.7 1.99, 5.59 1.77 C6.48 1.55, 7.48 1.34, 8.54 1.16 C9.6 0.97, 10.75 0.81, 11.95 0.66 C13.15 0.52, 14.42 0.4, 15.72 0.3 C17.02 0.2, 18.39 0.13, 19.75 0.08 C21.11 0.03, 22.51 0, 23.9 0 C25.28 0, 26.69 0.03, 28.05 0.08 C29.41 0.13, 30.77 0.2, 32.07 0.3 C33.37 0.4, 34.65 0.52, 35.85 0.66 C37.04 0.81, 38.2 0.97, 39.26 1.16 C40.32 1.34, 41.32 1.55, 42.2 1.77 C43.09 1.99, 43.9 2.23, 44.59 2.48 C45.29 2.72, 45.88 2.99, 46.35 3.26 C46.83 3.53, 47.19 3.81, 47.43 4.09 C47.67 4.38, 47.73 4.81, 47.8 4.95 C47.86 5.1, 47.86 4.81, 47.8 4.95" stroke="#000000" stroke-width="4" fill="none"></path></g><g stroke-linecap="round" transform="translate(183.49722629700955 563.5333279815547) rotate(0 23.89758027315719 4.9529372539291785)"><path d="M47.8 4.95 C47.8 5.24, 47.67 5.53, 47.43 5.81 C47.19 6.1, 46.83 6.38, 46.35 6.65 C45.88 6.92, 45.29 7.18, 44.59 7.43 C43.9 7.68, 43.09 7.92, 42.2 8.14 C41.32 8.36, 40.32 8.56, 39.26 8.75 C38.2 8.93, 37.04 9.1, 35.85 9.24 C34.65 9.39, 33.37 9.51, 32.07 9.61 C30.77 9.71, 29.41 9.78, 28.05 9.83 C26.69 9.88, 25.28 9.91, 23.9 9.91 C22.51 9.91, 21.11 9.88, 19.75 9.83 C18.39 9.78, 17.02 9.71, 15.72 9.61 C14.42 9.51, 13.15 9.39, 11.95 9.24 C10.75 9.1, 9.6 8.93, 8.54 8.75 C7.48 8.56, 6.48 8.36, 5.59 8.14 C4.7 7.92, 3.89 7.68, 3.2 7.43 C2.51 7.18, 1.91 6.92, 1.44 6.65 C0.97 6.38, 0.6 6.1, 0.36 5.81 C0.12 5.53, 0 5.24, 0 4.95 C0 4.67, 0.12 4.38, 0.36 4.09 C0.6 3.81, 0.97 3.53, 1.44 3.26 C1.91 2.99, 2.51 2.72, 3.2 2.48 C3.89 2.23, 4.7 1.99, 5.59 1.77 C6.48 1.55, 7.48 1.34, 8.54 1.16 C9.6 0.97, 10.75 0.81, 11.95 0.66 C13.15 0.52, 14.42 0.4, 15.72 0.3 C17.02 0.2, 18.39 0.13, 19.75 0.08 C21.11 0.03, 22.51 0, 23.9 0 C25.28 0, 26.69 0.03, 28.05 0.08 C29.41 0.13, 30.77 0.2, 32.07 0.3 C33.37 0.4, 34.65 0.52, 35.85 0.66 C37.04 0.81, 38.2 0.97, 39.26 1.16 C40.32 1.34, 41.32 1.55, 42.2 1.77 C43.09 1.99, 43.9 2.23, 44.59 2.48 C45.29 2.72, 45.88 2.99, 46.35 3.26 C46.83 3.53, 47.19 3.81, 47.43 4.09 C47.67 4.38, 47.73 4.81, 47.8 4.95 C47.86 5.1, 47.86 4.81, 47.8 4.95" stroke="none" stroke-width="0" fill="#000000"></path><path d="M47.8 4.95 C47.8 5.24, 47.67 5.53, 47.43 5.81 C47.19 6.1, 46.83 6.38, 46.35 6.65 C45.88 6.92, 45.29 7.18, 44.59 7.43 C43.9 7.68, 43.09 7.92, 42.2 8.14 C41.32 8.36, 40.32 8.56, 39.26 8.75 C38.2 8.93, 37.04 9.1, 35.85 9.24 C34.65 9.39, 33.37 9.51, 32.07 9.61 C30.77 9.71, 29.41 9.78, 28.05 9.83 C26.69 9.88, 25.28 9.91, 23.9 9.91 C22.51 9.91, 21.11 9.88, 19.75 9.83 C18.39 9.78, 17.02 9.71, 15.72 9.61 C14.42 9.51, 13.15 9.39, 11.95 9.24 C10.75 9.1, 9.6 8.93, 8.54 8.75 C7.48 8.56, 6.48 8.36, 5.59 8.14 C4.7 7.92, 3.89 7.68, 3.2 7.43 C2.51 7.18, 1.91 6.92, 1.44 6.65 C0.97 6.38, 0.6 6.1, 0.36 5.81 C0.12 5.53, 0 5.24, 0 4.95 C0 4.67, 0.12 4.38, 0.36 4.09 C0.6 3.81, 0.97 3.53, 1.44 3.26 C1.91 2.99, 2.51 2.72, 3.2 2.48 C3.89 2.23, 4.7 1.99, 5.59 1.77 C6.48 1.55, 7.48 1.34, 8.54 1.16 C9.6 0.97, 10.75 0.81, 11.95 0.66 C13.15 0.52, 14.42 0.4, 15.72 0.3 C17.02 0.2, 18.39 0.13, 19.75 0.08 C21.11 0.03, 22.51 0, 23.9 0 C25.28 0, 26.69 0.03, 28.05 0.08 C29.41 0.13, 30.77 0.2, 32.07 0.3 C33.37 0.4, 34.65 0.52, 35.85 0.66 C37.04 0.81, 38.2 0.97, 39.26 1.16 C40.32 1.34, 41.32 1.55, 42.2 1.77 C43.09 1.99, 43.9 2.23, 44.59 2.48 C45.29 2.72, 45.88 2.99, 46.35 3.26 C46.83 3.53, 47.19 3.81, 47.43 4.09 C47.67 4.38, 47.73 4.81, 47.8 4.95 C47.86 5.1, 47.86 4.81, 47.8 4.95" stroke="#000000" stroke-width="4" fill="none"></path></g><g stroke-linecap="round" transform="translate(184.23357243247335 563.9083763223431) rotate(0 23.161234137693782 5.957726897876398)"><path d="M46.32 5.96 C46.32 6.3, 46.2 6.65, 45.97 6.99 C45.74 7.33, 45.38 7.67, 44.93 8 C44.47 8.32, 43.89 8.64, 43.22 8.94 C42.55 9.24, 41.77 9.52, 40.9 9.79 C40.04 10.05, 39.08 10.3, 38.05 10.52 C37.02 10.74, 35.9 10.94, 34.74 11.12 C33.58 11.29, 32.34 11.44, 31.08 11.56 C29.82 11.67, 28.5 11.77, 27.18 11.82 C25.86 11.88, 24.5 11.92, 23.16 11.92 C21.82 11.92, 20.46 11.88, 19.14 11.82 C17.82 11.77, 16.5 11.67, 15.24 11.56 C13.98 11.44, 12.74 11.29, 11.58 11.12 C10.42 10.94, 9.3 10.74, 8.27 10.52 C7.25 10.3, 6.28 10.05, 5.42 9.79 C4.56 9.52, 3.77 9.24, 3.1 8.94 C2.43 8.64, 1.86 8.32, 1.4 8 C0.94 7.67, 0.58 7.33, 0.35 6.99 C0.12 6.65, 0 6.3, 0 5.96 C0 5.61, 0.12 5.26, 0.35 4.92 C0.58 4.58, 0.94 4.24, 1.4 3.92 C1.86 3.6, 2.43 3.28, 3.1 2.98 C3.77 2.68, 4.56 2.39, 5.42 2.13 C6.28 1.86, 7.25 1.62, 8.27 1.39 C9.3 1.17, 10.42 0.97, 11.58 0.8 C12.74 0.63, 13.98 0.48, 15.24 0.36 C16.5 0.24, 17.82 0.15, 19.14 0.09 C20.46 0.03, 21.82 0, 23.16 0 C24.5 0, 25.86 0.03, 27.18 0.09 C28.5 0.15, 29.82 0.24, 31.08 0.36 C32.34 0.48, 33.58 0.63, 34.74 0.8 C35.9 0.97, 37.02 1.17, 38.05 1.39 C39.08 1.62, 40.04 1.86, 40.9 2.13 C41.77 2.39, 42.55 2.68, 43.22 2.98 C43.89 3.28, 44.47 3.6, 44.93 3.92 C45.38 4.24, 45.74 4.58, 45.97 4.92 C46.2 5.26, 46.26 5.79, 46.32 5.96 C46.38 6.13, 46.38 5.79, 46.32 5.96" stroke="none" stroke-width="0" fill="#ffffff"></path><path d="M46.32 5.96 C46.32 6.3, 46.2 6.65, 45.97 6.99 C45.74 7.33, 45.38 7.67, 44.93 8 C44.47 8.32, 43.89 8.64, 43.22 8.94 C42.55 9.24, 41.77 9.52, 40.9 9.79 C40.04 10.05, 39.08 10.3, 38.05 10.52 C37.02 10.74, 35.9 10.94, 34.74 11.12 C33.58 11.29, 32.34 11.44, 31.08 11.56 C29.82 11.67, 28.5 11.77, 27.18 11.82 C25.86 11.88, 24.5 11.92, 23.16 11.92 C21.82 11.92, 20.46 11.88, 19.14 11.82 C17.82 11.77, 16.5 11.67, 15.24 11.56 C13.98 11.44, 12.74 11.29, 11.58 11.12 C10.42 10.94, 9.3 10.74, 8.27 10.52 C7.25 10.3, 6.28 10.05, 5.42 9.79 C4.56 9.52, 3.77 9.24, 3.1 8.94 C2.43 8.64, 1.86 8.32, 1.4 8 C0.94 7.67, 0.58 7.33, 0.35 6.99 C0.12 6.65, 0 6.3, 0 5.96 C0 5.61, 0.12 5.26, 0.35 4.92 C0.58 4.58, 0.94 4.24, 1.4 3.92 C1.86 3.6, 2.43 3.28, 3.1 2.98 C3.77 2.68, 4.56 2.39, 5.42 2.13 C6.28 1.86, 7.25 1.62, 8.27 1.39 C9.3 1.17, 10.42 0.97, 11.58 0.8 C12.74 0.63, 13.98 0.48, 15.24 0.36 C16.5 0.24, 17.82 0.15, 19.14 0.09 C20.46 0.03, 21.82 0, 23.16 0 C24.5 0, 25.86 0.03, 27.18 0.09 C28.5 0.15, 29.82 0.24, 31.08 0.36 C32.34 0.48, 33.58 0.63, 34.74 0.8 C35.9 0.97, 37.02 1.17, 38.05 1.39 C39.08 1.62, 40.04 1.86, 40.9 2.13 C41.77 2.39, 42.55 2.68, 43.22 2.98 C43.89 3.28, 44.47 3.6, 44.93 3.92 C45.38 4.24, 45.74 4.58, 45.97 4.92 C46.2 5.26, 46.26 5.79, 46.32 5.96 C46.38 6.13, 46.38 5.79, 46.32 5.96" stroke="#000000" stroke-width="4" fill="none"></path></g><g stroke-linecap="round"><g transform="translate(231.3678797521369 568.3902508682464) rotate(0 0.05650219683769819 20.540272466554427)"><path d="M0 0 C0.04 16.34, 0.09 32.69, 0.11 41.08 M0 0 C0.03 11.81, 0.06 23.62, 0.11 41.08" stroke="#000000" stroke-width="4" fill="none"></path></g></g><mask></mask><g stroke-linecap="round"><g transform="translate(183.4499790225192 568.5597687754952) rotate(0 -0.08476234864497201 20.3990079210717)"><path d="M0 0 C-0.04 9.61, -0.08 19.22, -0.17 40.8 M0 0 C-0.06 13.47, -0.11 26.94, -0.17 40.8" stroke="#000000" stroke-width="4" fill="none"></path></g></g><mask></mask><g transform="translate(188.7734759178669 582.3649604076753) rotate(0 18.766666412353516 12.261980457732705)"><text x="18.766666412353516" y="0" font-family="Virgil, Segoe UI Emoji" font-size="19.61916873237231px" fill="#ffffff" text-anchor="middle" style="white-space: pre;" direction="ltr" dominant-baseline="text-before-edge">SQL</text></g><g transform="translate(173.46329136104202 543.0716656141825) rotate(0 34.599998474121094 8.758557469809091)"><text x="34.599998474121094" y="0" font-family="Virgil, Segoe UI Emoji" font-size="14.013691951694506px" fill="#000000" text-anchor="middle" style="white-space: pre;" direction="ltr" dominant-baseline="text-before-edge">Database</text></g><g mask="url(#mask-8bw2dZvJOAfscgRpNpWIQ)" stroke-linecap="round"><g transform="translate(130.2384561087282 290.87851795715005) rotate(0 -20.302084649520054 25.722163627564186)"><path d="M-1.02 -0.63 C-7.77 7.92, -33.59 43.47, -40.32 52.18 M0.64 1.65 C-6.26 9.79, -34.52 41.88, -41.11 50.44" stroke="#1e1e1e" stroke-width="2" fill="none"></path></g><g transform="translate(130.2384561087282 290.87851795715005) rotate(0 -20.302084649520054 25.722163627564186)"><path d="M-32.67 26.91 C-36.23 34.78, -36.64 40.42, -41.11 50.44 M-32.67 26.91 C-35.49 33.76, -37.61 42.51, -41.11 50.44" stroke="#1e1e1e" stroke-width="2" fill="none"></path></g><g transform="translate(130.2384561087282 290.87851795715005) rotate(0 -20.302084649520054 25.722163627564186)"><path d="M-19.52 37.84 C-27.33 42.13, -31.9 44.31, -41.11 50.44 M-19.52 37.84 C-26.48 41.16, -32.71 46.49, -41.11 50.44" stroke="#1e1e1e" stroke-width="2" fill="none"></path></g></g><mask id="mask-8bw2dZvJOAfscgRpNpWIQ"><rect x="0" y="0" fill="#fff" width="270.8426254077683" height="442.3228452122784"></rect><rect x="107.21970476075228" y="304.1006815847142" fill="#000" width="5.433333396911621" height="25" opacity="1"></rect></mask><g transform="translate(107.21970476075228 304.10068158471427) rotate(0 2.784647722048703 12.549887999147188)"><text x="2.7166666984558105" y="0" font-family="Virgil, Segoe UI Emoji" font-size="20px" fill="#2f9e44" text-anchor="middle" style="white-space: pre;" direction="ltr" dominant-baseline="text-before-edge">1</text></g><g stroke-linecap="round" transform="translate(165.71421272385817 355.6373312242247) rotate(0 33.92887186011433 33.65959509931977)"><path d="M16.83 0 C27.87 -3.47, 34.28 -0.47, 51.03 0 C60.57 -0.22, 68.93 2.64, 67.86 16.83 C69.46 30.51, 69.19 42.62, 67.86 50.49 C69.31 60.14, 61.44 69.59, 51.03 67.32 C43.49 67.39, 27.63 65.84, 16.83 67.32 C2.44 67.86, -0.85 58.78, 0 50.49 C0.09 39.58, 2.37 28.38, 0 16.83 C2.23 4.07, 8.15 -3.04, 16.83 0" stroke="none" stroke-width="0" fill="#a5d8ff"></path><path d="M16.83 0 C25.99 1.31, 34.73 0.38, 51.03 0 M16.83 0 C26.62 -0.65, 37.32 0.56, 51.03 0 M51.03 0 C62.12 1.89, 69.38 3.83, 67.86 16.83 M51.03 0 C64.31 -0.12, 68.69 4.02, 67.86 16.83 M67.86 16.83 C66.37 27.5, 68.34 40.24, 67.86 50.49 M67.86 16.83 C68.51 24.81, 67.71 33.34, 67.86 50.49 M67.86 50.49 C67.95 61.66, 61.61 65.63, 51.03 67.32 M67.86 50.49 C65.91 62.64, 61.56 65.03, 51.03 67.32 M51.03 67.32 C45.34 67.66, 37.02 68.17, 16.83 67.32 M51.03 67.32 C39.27 66.91, 26.97 67.17, 16.83 67.32 M16.83 67.32 C5.87 69.05, -1.93 63.28, 0 50.49 M16.83 67.32 C7.82 66.69, -1.34 62.52, 0 50.49 M0 50.49 C-0.22 39.48, 1.67 31.41, 0 16.83 M0 50.49 C-0.37 38.73, -0.61 26.5, 0 16.83 M0 16.83 C1.1 6.15, 7.25 0.84, 16.83 0 M0 16.83 C-0.85 4.29, 5.24 -1.7, 16.83 0" stroke="#1e1e1e" stroke-width="2" fill="none"></path></g><g transform="translate(171.77641779014925 379.0832129024946) rotate(0 27.866666793823242 10.213713421049874)"><text x="27.866666793823242" y="0" font-family="Virgil, Segoe UI Emoji" font-size="16.341941473679775px" fill="#1e1e1e" text-anchor="middle" style="white-space: pre;" direction="ltr" dominant-baseline="text-before-edge">permesi</text></g><g stroke-linecap="round" transform="translate(10 522.293375252564) rotate(0 132.5859660619547 58.28856712321226)"><path d="M29.14 0 C72.76 1.96, 114.18 1.5, 236.03 0 M29.14 0 C79.02 -0.45, 128.28 -0.48, 236.03 0 M236.03 0 C254.3 1.24, 266.25 8.56, 265.17 29.14 M236.03 0 C257.52 -1.48, 266.36 10.03, 265.17 29.14 M265.17 29.14 C264.9 51.58, 267.55 70.77, 265.17 87.43 M265.17 29.14 C266.14 44.31, 266.11 59.17, 265.17 87.43 M265.17 87.43 C264.9 105.17, 256.28 115.82, 236.03 116.58 M265.17 87.43 C266.09 107.59, 254.26 116.93, 236.03 116.58 M236.03 116.58 C167.98 117.14, 101.7 114.56, 29.14 116.58 M236.03 116.58 C161.56 115.65, 86.84 114.97, 29.14 116.58 M29.14 116.58 C9.79 116.63, 1.86 108.49, 0 87.43 M29.14 116.58 C7.61 115.58, -0.66 105.68, 0 87.43 M0 87.43 C0.36 66.76, 0.6 43.78, 0 29.14 M0 87.43 C-1.08 72.85, 0.5 56.93, 0 29.14 M0 29.14 C-1.81 9.05, 9.1 -1.9, 29.14 0 M0 29.14 C0.72 10.83, 8.98 1.19, 29.14 0" stroke="#1e1e1e" stroke-width="2" fill="none"></path></g><g stroke-linecap="round"><g transform="translate(59.73622586949432 434.27100743481054) rotate(0 0.019111193521894165 32.9281464981251)"><path d="M-0.74 1.01 C-0.48 11.95, 0.41 55.02, 0.48 65.76 M1.06 0.49 C1.31 11.62, 0.16 56.24, -0.24 67.24" stroke="#1e1e1e" stroke-width="2" fill="none"></path></g><g transform="translate(59.73622586949432 434.27100743481054) rotate(0 0.019111193521894165 32.9281464981251)"><path d="M8.28 24.32 C8.09 20.2, 4.38 14.01, -0.74 1.01 M8.28 24.32 C6.49 17.56, 3.91 11.75, -0.74 1.01" stroke="#1e1e1e" stroke-width="2" fill="none"></path></g><g transform="translate(59.73622586949432 434.27100743481054) rotate(0 0.019111193521894165 32.9281464981251)"><path d="M-8.82 24.67 C-5.49 20.58, -5.68 14.32, -0.74 1.01 M-8.82 24.67 C-6.07 17.78, -4.12 11.87, -0.74 1.01" stroke="#1e1e1e" stroke-width="2" fill="none"></path></g><g transform="translate(59.73622586949432 434.27100743481054) rotate(0 0.019111193521894165 32.9281464981251)"><path d="M-8.1 43.51 C-4.78 49.17, -5.01 52.66, -0.24 67.24 M-8.1 43.51 C-5.61 49.17, -3.71 55.82, -0.24 67.24" stroke="#1e1e1e" stroke-width="2" fill="none"></path></g><g transform="translate(59.73622586949432 434.27100743481054) rotate(0 0.019111193521894165 32.9281464981251)"><path d="M9 44.01 C8.8 49.46, 5.05 52.85, -0.24 67.24 M9 44.01 C6.96 49.58, 4.32 56.1, -0.24 67.24" stroke="#1e1e1e" stroke-width="2" fill="none"></path></g></g><mask></mask><g stroke-linecap="round"><g transform="translate(203.10229240521755 435.31953058819585) rotate(0 -0.07342027567875675 34.480560833449545)"><path d="M-0.95 0.46 C-1.11 11.97, -0.75 58.82, -0.72 70.15 M0.75 -0.34 C0.36 11.38, -1.54 57.02, -1.96 68.65" stroke="#1e1e1e" stroke-width="2" fill="none"></path></g><g transform="translate(203.10229240521755 435.31953058819585) rotate(0 -0.07342027567875675 34.480560833449545)"><path d="M7.66 23.93 C5.46 15.4, 3.91 7.84, -0.95 0.46 M7.66 23.93 C5.31 17.36, 3.23 12.27, -0.95 0.46" stroke="#1e1e1e" stroke-width="2" fill="none"></path></g><g transform="translate(203.10229240521755 435.31953058819585) rotate(0 -0.07342027567875675 34.480560833449545)"><path d="M-9.44 23.98 C-6.17 15.56, -2.24 7.99, -0.95 0.46 M-9.44 23.98 C-7.47 17.32, -5.21 12.21, -0.95 0.46" stroke="#1e1e1e" stroke-width="2" fill="none"></path></g><g transform="translate(203.10229240521755 435.31953058819585) rotate(0 -0.07342027567875675 34.480560833449545)"><path d="M-9.58 44.84 C-6.16 51.57, -2.51 59.16, -1.96 68.65 M-9.58 44.84 C-7.44 50.17, -5.41 57.04, -1.96 68.65" stroke="#1e1e1e" stroke-width="2" fill="none"></path></g><g transform="translate(203.10229240521755 435.31953058819585) rotate(0 -0.07342027567875675 34.480560833449545)"><path d="M7.5 45.51 C5.45 51.89, 3.63 59.26, -1.96 68.65 M7.5 45.51 C5.31 50.75, 3.02 57.46, -1.96 68.65" stroke="#1e1e1e" stroke-width="2" fill="none"></path></g></g><mask></mask><g stroke-linecap="round" transform="translate(121.47269135614044 9.999999999999996) rotate(0 18.476697415167735 18.370509498988607)"><path d="M18.41 -0.1 C22.18 -0.36, 26.99 1.63, 30.05 4.19 C33.12 6.74, 36.03 11.38, 36.82 15.25 C37.61 19.12, 36.77 23.97, 34.77 27.39 C32.77 30.81, 28.64 34.37, 24.83 35.75 C21.02 37.14, 15.58 37.03, 11.9 35.68 C8.23 34.34, 4.77 31.12, 2.8 27.67 C0.82 24.22, -0.64 18.92, 0.04 15 C0.71 11.07, 3.73 6.68, 6.85 4.14 C9.97 1.6, 16.64 0.37, 18.78 -0.25 C20.92 -0.87, 19.71 0.07, 19.7 0.43 M20.76 0.53 C24.4 1.01, 28.84 3.92, 31.66 6.81 C34.48 9.7, 37.48 14.05, 37.67 17.89 C37.87 21.73, 35.51 26.76, 32.81 29.85 C30.12 32.93, 25.48 35.73, 21.5 36.4 C17.52 37.06, 12.31 35.63, 8.94 33.83 C5.57 32.03, 2.51 29.18, 1.29 25.58 C0.08 21.98, 0.34 15.98, 1.68 12.2 C3.02 8.43, 6.07 4.91, 9.35 2.92 C12.64 0.93, 19.41 0.51, 21.39 0.24 C23.37 -0.03, 21.22 1.11, 21.24 1.31" stroke="#343a40" stroke-width="2" fill="none"></path></g><g stroke-linecap="round" transform="translate(134.21524129763554 16.204168897868154) rotate(0 5.2032078927771295 5.41558372513537)"><path d="M5.08 -0.16 C6.19 -0.16, 7.92 0.64, 8.86 1.42 C9.79 2.19, 10.55 3.31, 10.69 4.48 C10.83 5.65, 10.38 7.4, 9.7 8.43 C9.01 9.46, 7.6 10.3, 6.58 10.66 C5.56 11.02, 4.61 11.08, 3.57 10.6 C2.52 10.12, 0.87 8.88, 0.33 7.8 C-0.21 6.72, 0.08 5.29, 0.31 4.13 C0.54 2.97, 0.84 1.54, 1.73 0.85 C2.61 0.17, 5.04 0.15, 5.64 0.04 C6.24 -0.07, 5.32 0.1, 5.34 0.19 M4 0.66 C5.23 0.42, 7.81 0.38, 8.82 0.93 C9.83 1.48, 9.99 2.85, 10.06 3.96 C10.14 5.08, 9.83 6.69, 9.28 7.63 C8.73 8.57, 7.65 8.99, 6.76 9.58 C5.88 10.16, 4.8 11.35, 3.96 11.13 C3.13 10.91, 2.31 9.23, 1.74 8.26 C1.17 7.28, 0.58 6.35, 0.56 5.26 C0.55 4.17, 0.95 2.46, 1.65 1.71 C2.35 0.97, 4.15 1.13, 4.75 0.78 C5.35 0.42, 5.27 -0.29, 5.25 -0.43" stroke="#343a40" stroke-width="2" fill="none"></path></g><g stroke-linecap="round"><g transform="translate(129.11822132103737 37.18410654185601) rotate(0 10.724979534091574 -1.168067077970381)"><path d="M0.1 -0.16 C1.81 -1.25, 6.76 -7, 10.29 -6.98 C13.82 -6.96, 21.18 -2, 21.27 -0.07 C21.36 1.87, 14.41 4.58, 10.82 4.61 C7.23 4.64, 1.53 0.92, -0.26 0.12 M-0.51 -0.72 C1.12 -1.71, 6.25 -6.71, 9.8 -6.48 C13.36 -6.26, 20.64 -1.08, 20.83 0.61 C21.02 2.3, 14.3 3.67, 10.92 3.63 C7.55 3.59, 2.29 1.09, 0.61 0.36" stroke="#343a40" stroke-width="2" fill="none"></path></g></g><mask></mask><g mask="url(#mask-OJZd7dlZATSoWOyl-engo)" stroke-linecap="round"><g transform="translate(150.67055537342992 292.39833953637657) rotate(0 28.179599768153253 25.949906527231178)"><path d="M0.9 -0.92 C10.53 7.75, 47.63 43.28, 56.98 52.2 M-0.09 1.21 C9.51 9.49, 46.92 42, 56.36 50.24" stroke="#1e1e1e" stroke-width="2" fill="none"></path></g><g transform="translate(150.67055537342992 292.39833953637657) rotate(0 28.179599768153253 25.949906527231178)"><path d="M33.03 41.27 C36.93 44.22, 44.41 46.35, 56.36 50.24 M33.03 41.27 C41.33 44.98, 50.42 47, 56.36 50.24" stroke="#1e1e1e" stroke-width="2" fill="none"></path></g><g transform="translate(150.67055537342992 292.39833953637657) rotate(0 28.179599768153253 25.949906527231178)"><path d="M44.25 28.37 C45.56 34.41, 50.42 39.54, 56.36 50.24 M44.25 28.37 C48.45 36.69, 53.5 43.35, 56.36 50.24" stroke="#1e1e1e" stroke-width="2" fill="none"></path></g></g><mask id="mask-OJZd7dlZATSoWOyl-engo"><rect x="0" y="0" fill="#fff" width="307.0297549097364" height="444.2981525908389"></rect><rect x="171.73348834775993" y="305.8482460636078" fill="#000" width="14.233333587646484" height="25" opacity="1"></rect></mask><g transform="translate(171.73348834775993 305.8482460636078) rotate(0 7.382687477385616 12.189590781554585)"><text x="7.116666793823242" y="0" font-family="Virgil, Segoe UI Emoji" font-size="20px" fill="#2f9e44" text-anchor="middle" style="white-space: pre;" direction="ltr" dominant-baseline="text-before-edge">2</text></g><g transform="translate(126.87195958972973 112.43081471909431) rotate(0 12.283333778381348 7.77777071351845)"><text x="0" y="0" font-family="Virgil, Segoe UI Emoji" font-size="12.444433141629519px" fill="#000000" text-anchor="start" style="white-space: pre;" direction="ltr" dominant-baseline="text-before-edge">WAF</text></g><g stroke-linecap="round" transform="translate(123.40602484235535 133.67204556541822) rotate(357.64166542234244 16.26590728155395 15.620407302301686)"><path d="M32.53 15.62 C32.53 16.52, 32.45 17.44, 32.28 18.33 C32.12 19.22, 31.87 20.11, 31.55 20.96 C31.23 21.81, 30.82 22.65, 30.35 23.43 C29.88 24.21, 29.33 24.97, 28.73 25.66 C28.12 26.35, 27.44 27.01, 26.72 27.59 C26 28.17, 25.21 28.7, 24.4 29.15 C23.58 29.6, 22.71 29.99, 21.83 30.3 C20.94 30.61, 20.02 30.85, 19.09 31 C18.16 31.16, 17.21 31.24, 16.27 31.24 C15.32 31.24, 14.37 31.16, 13.44 31 C12.51 30.85, 11.59 30.61, 10.7 30.3 C9.82 29.99, 8.95 29.6, 8.13 29.15 C7.32 28.7, 6.53 28.17, 5.81 27.59 C5.09 27.01, 4.41 26.35, 3.81 25.66 C3.2 24.97, 2.65 24.21, 2.18 23.43 C1.71 22.65, 1.3 21.81, 0.98 20.96 C0.66 20.11, 0.41 19.22, 0.25 18.33 C0.08 17.44, 0 16.52, 0 15.62 C0 14.72, 0.08 13.8, 0.25 12.91 C0.41 12.02, 0.66 11.13, 0.98 10.28 C1.3 9.43, 1.71 8.59, 2.18 7.81 C2.65 7.03, 3.2 6.27, 3.81 5.58 C4.41 4.89, 5.09 4.24, 5.81 3.65 C6.53 3.07, 7.32 2.54, 8.13 2.09 C8.95 1.64, 9.82 1.25, 10.7 0.94 C11.59 0.63, 12.51 0.39, 13.44 0.24 C14.37 0.08, 15.32 0, 16.27 0 C17.21 0, 18.16 0.08, 19.09 0.24 C20.02 0.39, 20.94 0.63, 21.83 0.94 C22.71 1.25, 23.58 1.64, 24.4 2.09 C25.21 2.54, 26 3.07, 26.72 3.65 C27.44 4.24, 28.12 4.89, 28.73 5.58 C29.33 6.27, 29.88 7.03, 30.35 7.81 C30.82 8.59, 31.23 9.43, 31.55 10.28 C31.87 11.13, 32.12 12.02, 32.28 12.91 C32.45 13.8, 32.49 15.17, 32.53 15.62 C32.57 16.07, 32.57 15.17, 32.53 15.62" stroke="none" stroke-width="0" fill="#228be6"></path><path d="M32.53 15.62 C32.53 16.52, 32.45 17.44, 32.28 18.33 C32.12 19.22, 31.87 20.11, 31.55 20.96 C31.23 21.81, 30.82 22.65, 30.35 23.43 C29.88 24.21, 29.33 24.97, 28.73 25.66 C28.12 26.35, 27.44 27.01, 26.72 27.59 C26 28.17, 25.21 28.7, 24.4 29.15 C23.58 29.6, 22.71 29.99, 21.83 30.3 C20.94 30.61, 20.02 30.85, 19.09 31 C18.16 31.16, 17.21 31.24, 16.27 31.24 C15.32 31.24, 14.37 31.16, 13.44 31 C12.51 30.85, 11.59 30.61, 10.7 30.3 C9.82 29.99, 8.95 29.6, 8.13 29.15 C7.32 28.7, 6.53 28.17, 5.81 27.59 C5.09 27.01, 4.41 26.35, 3.81 25.66 C3.2 24.97, 2.65 24.21, 2.18 23.43 C1.71 22.65, 1.3 21.81, 0.98 20.96 C0.66 20.11, 0.41 19.22, 0.25 18.33 C0.08 17.44, 0 16.52, 0 15.62 C0 14.72, 0.08 13.8, 0.25 12.91 C0.41 12.02, 0.66 11.13, 0.98 10.28 C1.3 9.43, 1.71 8.59, 2.18 7.81 C2.65 7.03, 3.2 6.27, 3.81 5.58 C4.41 4.89, 5.09 4.24, 5.81 3.65 C6.53 3.07, 7.32 2.54, 8.13 2.09 C8.95 1.64, 9.82 1.25, 10.7 0.94 C11.59 0.63, 12.51 0.39, 13.44 0.24 C14.37 0.08, 15.32 0, 16.27 0 C17.21 0, 18.16 0.08, 19.09 0.24 C20.02 0.39, 20.94 0.63, 21.83 0.94 C22.71 1.25, 23.58 1.64, 24.4 2.09 C25.21 2.54, 26 3.07, 26.72 3.65 C27.44 4.24, 28.12 4.89, 28.73 5.58 C29.33 6.27, 29.88 7.03, 30.35 7.81 C30.82 8.59, 31.23 9.43, 31.55 10.28 C31.87 11.13, 32.12 12.02, 32.28 12.91 C32.45 13.8, 32.49 15.17, 32.53 15.62 C32.57 16.07, 32.57 15.17, 32.53 15.62" stroke="#228be6" stroke-width="1" fill="none"></path></g><g stroke-linecap="round"><g transform="translate(129.49584178249086 141.2823051001265) rotate(357.64166542234244 10.236301161124004 -0.42981310952366414)"><path d="M0 0 C1.65 -0.2, 6.51 -1.28, 9.93 -1.22 C13.34 -1.16, 18.71 0.09, 20.47 0.36 M0 0 C1.65 -0.2, 6.51 -1.28, 9.93 -1.22 C13.34 -1.16, 18.71 0.09, 20.47 0.36" stroke="#ffffff" stroke-width="4" fill="none"></path></g></g><mask></mask><g stroke-linecap="round"><g transform="translate(129.7722219041069 141.74469618432357) rotate(357.64166542234244 4.915318042411627 10.116597957011635)"><path d="M0 0 C0.42 2.09, 0.91 9.15, 2.55 12.52 C4.19 15.89, 8.62 18.95, 9.83 20.23 M0 0 C0.42 2.09, 0.91 9.15, 2.55 12.52 C4.19 15.89, 8.62 18.95, 9.83 20.23" stroke="#ffffff" stroke-width="4" fill="none"></path></g></g><mask></mask><g stroke-linecap="round"><g transform="translate(139.86768032359066 161.793267995509) rotate(357.64166542234244 5.245988843753139 -10.143685769781513)"><path d="M0 0 C1.39 -1.28, 6.58 -4.29, 8.32 -7.67 C10.07 -11.05, 10.13 -18.18, 10.49 -20.29 M0 0 C1.39 -1.28, 6.58 -4.29, 8.32 -7.67 C10.07 -11.05, 10.13 -18.18, 10.49 -20.29" stroke="#ffffff" stroke-width="4" fill="none"></path></g></g><mask></mask><g stroke-linecap="round"><g transform="translate(139.87105519173213 161.2924743422144) rotate(357.64166542234244 -0.2491994265275821 -10.19835819585903)"><path d="M0 0 C-0.08 -2.04, -0.48 -8.86, -0.5 -12.26 C-0.52 -15.66, -0.18 -19.04, -0.12 -20.4 M0 0 C-0.08 -2.04, -0.48 -8.86, -0.5 -12.26 C-0.52 -15.66, -0.18 -19.04, -0.12 -20.4" stroke="#ffffff" stroke-width="4" fill="none"></path></g></g><mask></mask><g stroke-linecap="round"><g transform="translate(130.77993039765533 142.2883950943489) rotate(357.64166542234244 8.924226943665303 -0.37472028932864987)"><path d="M0 0 C1.44 -0.18, 5.68 -1.11, 8.65 -1.06 C11.63 -1.01, 16.32 0.08, 17.85 0.31 M0 0 C1.44 -0.18, 5.68 -1.11, 8.65 -1.06 C11.63 -1.01, 16.32 0.08, 17.85 0.31" stroke="#ffffff" stroke-width="4" fill="none"></path></g></g><mask></mask><g stroke-linecap="round"><g transform="translate(131.02088451664758 142.69151756086745) rotate(357.64166542234244 4.285279713864668 8.81986712242049)"><path d="M0 0 C0.37 1.82, 0.79 7.98, 2.22 10.92 C3.65 13.86, 7.51 16.52, 8.57 17.64 M0 0 C0.37 1.82, 0.79 7.98, 2.22 10.92 C3.65 13.86, 7.51 16.52, 8.57 17.64" stroke="#ffffff" stroke-width="4" fill="none"></path></g></g><mask></mask><g stroke-linecap="round"><g transform="translate(139.8223217367613 160.17029255225754) rotate(357.64166542234244 4.5735656120973545 -8.843482858687025)"><path d="M0 0 C1.21 -1.11, 5.73 -3.74, 7.26 -6.69 C8.78 -9.64, 8.83 -15.85, 9.15 -17.69 M0 0 C1.21 -1.11, 5.73 -3.74, 7.26 -6.69 C8.78 -9.64, 8.83 -15.85, 9.15 -17.69" stroke="#ffffff" stroke-width="4" fill="none"></path></g></g><mask></mask><g stroke-linecap="round"><g transform="translate(139.82526401920575 159.73368990217912) rotate(357.64166542234244 -0.21725740592796683 -8.891147452586395)"><path d="M0 0 C-0.07 -1.78, -0.42 -7.72, -0.43 -10.69 C-0.45 -13.65, -0.16 -16.6, -0.11 -17.78 M0 0 C-0.07 -1.78, -0.42 -7.72, -0.43 -10.69 C-0.45 -13.65, -0.16 -16.6, -0.11 -17.78" stroke="#ffffff" stroke-width="4" fill="none"></path></g></g><mask></mask><g stroke-linecap="round"><g transform="translate(140.77534795180247 176.8891138939553) rotate(0 -0.3017079139465295 20.99069780251665)"><path d="M0.07 -0.52 C-0.04 6.33, -0.29 34.43, -0.41 41.43 M-0.55 0.4 C-0.75 7.27, -0.66 34.94, -0.74 41.85" stroke="#1e1e1e" stroke-width="2" fill="none"></path></g><g transform="translate(140.77534795180247 176.8891138939553) rotate(0 -0.3017079139465295 20.99069780251665)"><path d="M-7.85 22.1 C-6.23 29.4, -3.78 35.91, -0.74 41.85 M-7.85 22.1 C-6.57 26.72, -5.23 30.83, -0.74 41.85" stroke="#1e1e1e" stroke-width="2" fill="none"></path></g><g transform="translate(140.77534795180247 176.8891138939553) rotate(0 -0.3017079139465295 20.99069780251665)"><path d="M6.51 22.15 C3.08 29.44, 0.48 35.93, -0.74 41.85 M6.51 22.15 C4.68 26.76, 2.92 30.85, -0.74 41.85" stroke="#1e1e1e" stroke-width="2" fill="none"></path></g></g><mask></mask><g stroke-linecap="round"><g transform="translate(138.17193212390941 59.87050949898861) rotate(0 0 23.5)"><path d="M0.21 -0.45 C0.21 7.38, 0.57 39.22, 0.45 47.11 M-0.35 0.51 C-0.42 8.15, 0.1 38.38, 0.25 46.21" stroke="#1e1e1e" stroke-width="2" fill="none"></path></g><g transform="translate(138.17193212390941 59.87050949898861) rotate(0 0 23.5)"><path d="M-8.18 24.27 C-5.77 33.36, -1.57 39.91, 0.25 46.21 M-8.18 24.27 C-5.47 30.63, -3.46 36.19, 0.25 46.21" stroke="#1e1e1e" stroke-width="2" fill="none"></path></g><g transform="translate(138.17193212390941 59.87050949898861) rotate(0 0 23.5)"><path d="M7.89 23.98 C4.23 33.21, 2.36 39.88, 0.25 46.21 M7.89 23.98 C6.08 30.44, 3.58 36.07, 0.25 46.21" stroke="#1e1e1e" stroke-width="2" fill="none"></path></g></g><mask></mask></svg>