<?xml version="1.0" standalone="no"?>
<!DOCTYPE svg PUBLIC "-//W3C//DTD SVG 20010904//EN"
 "http://www.w3.org/TR/2001/REC-SVG-20010904/DTD/svg10.dtd">
<svg version="1.0" xmlns="http://www.w3.org/2000/svg"
 width="200.000000pt" height="200.000000pt" viewBox="0 0 200.000000 200.000000"
 preserveAspectRatio="xMidYMid meet">

<g transform="translate(0.000000,200.000000) scale(0.100000,-0.100000)"
fill="#000000" stroke="none">
<path d="M613 1700 c-50 -30 -54 -45 -51 -216 3 -135 5 -158 20 -168 13 -8 22
-6 37 8 19 18 21 30 21 156 0 104 3 140 14 149 9 8 102 11 321 9 l308 -3 -159
-68 c-173 -74 -214 -105 -233 -174 -7 -24 -11 -182 -11 -425 l0 -388 -108 0
c-71 0 -112 4 -120 12 -8 8 -12 56 -12 149 0 112 -3 141 -16 153 -18 19 -20
19 -45 6 -18 -10 -19 -22 -19 -163 1 -165 6 -185 56 -218 24 -16 47 -19 147
-19 l117 0 0 -64 c0 -34 5 -77 11 -95 11 -31 52 -61 84 -61 28 0 466 192 497
218 60 50 58 33 58 607 0 577 1 569 -60 600 -24 13 -91 15 -427 15 -376 0
-400 -1 -430 -20z"/>
</g>
</svg>
